<svg xmlns="http://www.w3.org/2000/svg" xmlns:xlink="http://www.w3.org/1999/xlink" width="1080" zoomAndPan="magnify" viewBox="0 0 810 809.999993" height="1080" preserveAspectRatio="xMidYMid meet" version="1.2"><defs><clipPath id="faad761a9a"><path d="M 129.441406 306 L 186 306 L 186 504 L 129.441406 504 Z M 129.441406 306 "/></clipPath><clipPath id="79bc5d6dce"><path d="M 459 129.441406 L 516 129.441406 L 516 680.550781 L 459 680.550781 Z M 459 129.441406 "/></clipPath><clipPath id="aba504108d"><path d="M 624 341 L 680.691406 341 L 680.691406 469 L 624 469 Z M 624 341 "/></clipPath><clipPath id="2beb97bb34"><path d="M 129.441406 306 L 186 306 L 186 504 L 129.441406 504 Z M 129.441406 306 "/></clipPath><clipPath id="196aedec43"><path d="M 459 129.441406 L 516 129.441406 L 516 680.550781 L 459 680.550781 Z M 459 129.441406 "/></clipPath><clipPath id="cd313b1d33"><path d="M 624 341 L 680.691406 341 L 680.691406 469 L 624 469 Z M 624 341 "/></clipPath></defs><g id="6500e51e2b"><rect x="0" width="810" y="0" height="809.999993" style="fill:#ffffff;fill-opacity:1;stroke:none;"/><rect x="0" width="810" y="0" height="809.999993" style="fill:#000000;fill-opacity:1;stroke:none;"/><g clip-rule="nonzero" clip-path="url(#faad761a9a)"><path style=" stroke:none;fill-rule:nonzero;fill:#ffffff;fill-opacity:1;" d="M 157.726562 503.863281 C 142.097656 503.863281 129.441406 491.324219 129.441406 475.636719 L 129.441406 334.332031 C 129.441406 318.703125 142.097656 306.105469 157.726562 306.105469 C 173.300781 306.105469 185.953125 318.703125 185.953125 334.332031 L 185.953125 475.636719 C 185.953125 491.269531 173.300781 503.863281 157.726562 503.863281 Z M 157.726562 503.863281 "/></g><path style=" stroke:none;fill-rule:nonzero;fill:#ffffff;fill-opacity:1;" d="M 240.117188 574.574219 C 224.542969 574.574219 211.890625 561.921875 211.890625 546.289062 L 211.890625 263.679688 C 211.890625 248.050781 224.542969 235.398438 240.117188 235.398438 C 255.746094 235.398438 268.398438 248.050781 268.398438 263.679688 L 268.398438 546.289062 C 268.398438 561.921875 255.746094 574.574219 240.117188 574.574219 Z M 240.117188 574.574219 "/><path style=" stroke:none;fill-rule:nonzero;fill:#ffffff;fill-opacity:1;" d="M 322.5625 539.191406 C 306.929688 539.191406 294.277344 526.539062 294.277344 510.964844 L 294.277344 299.007812 C 294.277344 283.378906 306.929688 270.722656 322.5625 270.722656 C 338.191406 270.722656 350.847656 283.378906 350.847656 299.007812 L 350.847656 510.964844 C 350.847656 526.539062 338.191406 539.191406 322.5625 539.191406 Z M 322.5625 539.191406 "/><path style=" stroke:none;fill-rule:nonzero;fill:#ffffff;fill-opacity:1;" d="M 405.007812 609.898438 C 389.378906 609.898438 376.726562 597.246094 376.726562 581.617188 L 376.726562 228.355469 C 376.726562 212.78125 389.378906 200.070312 405.007812 200.070312 C 420.582031 200.070312 433.234375 212.78125 433.234375 228.355469 L 433.234375 581.617188 C 433.234375 597.246094 420.582031 609.898438 405.007812 609.898438 Z M 405.007812 609.898438 "/><g clip-rule="nonzero" clip-path="url(#79bc5d6dce)"><path style=" stroke:none;fill-rule:nonzero;fill:#ffffff;fill-opacity:1;" d="M 487.457031 680.550781 C 471.824219 680.550781 459.171875 667.898438 459.171875 652.269531 L 459.171875 157.761719 C 459.171875 142.074219 471.824219 129.417969 487.457031 129.417969 C 503.027344 129.417969 515.683594 142.074219 515.683594 157.761719 L 515.683594 652.269531 C 515.683594 667.898438 503.027344 680.550781 487.457031 680.550781 Z M 487.457031 680.550781 "/></g><path style=" stroke:none;fill-rule:nonzero;fill:#ffffff;fill-opacity:1;" d="M 569.84375 574.574219 C 554.269531 574.574219 541.617188 561.921875 541.617188 546.289062 L 541.617188 263.679688 C 541.617188 248.050781 554.269531 235.398438 569.84375 235.398438 C 585.476562 235.398438 598.128906 248.050781 598.128906 263.679688 L 598.128906 546.289062 C 598.128906 561.921875 585.476562 574.574219 569.84375 574.574219 Z M 569.84375 574.574219 "/><g clip-rule="nonzero" clip-path="url(#aba504108d)"><path style=" stroke:none;fill-rule:nonzero;fill:#ffffff;fill-opacity:1;" d="M 652.289062 468.539062 C 636.660156 468.539062 624.007812 455.886719 624.007812 440.3125 L 624.007812 369.660156 C 624.007812 354.027344 636.660156 341.375 652.289062 341.375 C 667.921875 341.375 680.574219 354.027344 680.574219 369.660156 L 680.574219 440.3125 C 680.574219 455.886719 667.921875 468.539062 652.289062 468.539062 Z M 652.289062 468.539062 "/></g><g clip-rule="nonzero" clip-path="url(#2beb97bb34)"><path style=" stroke:none;fill-rule:nonzero;fill:#ffffff;fill-opacity:1;" d="M 157.726562 503.863281 C 142.097656 503.863281 129.441406 491.324219 129.441406 475.636719 L 129.441406 334.332031 C 129.441406 318.703125 142.097656 306.105469 157.726562 306.105469 C 173.300781 306.105469 185.953125 318.703125 185.953125 334.332031 L 185.953125 475.636719 C 185.953125 491.269531 173.300781 503.863281 157.726562 503.863281 Z M 157.726562 503.863281 "/></g><path style=" stroke:none;fill-rule:nonzero;fill:#ffffff;fill-opacity:1;" d="M 240.117188 574.574219 C 224.542969 574.574219 211.890625 561.921875 211.890625 546.289062 L 211.890625 263.679688 C 211.890625 248.050781 224.542969 235.398438 240.117188 235.398438 C 255.746094 235.398438 268.398438 248.050781 268.398438 263.679688 L 268.398438 546.289062 C 268.398438 561.921875 255.746094 574.574219 240.117188 574.574219 Z M 240.117188 574.574219 "/><path style=" stroke:none;fill-rule:nonzero;fill:#ffffff;fill-opacity:1;" d="M 322.5625 539.191406 C 306.929688 539.191406 294.277344 526.539062 294.277344 510.964844 L 294.277344 299.007812 C 294.277344 283.378906 306.929688 270.722656 322.5625 270.722656 C 338.191406 270.722656 350.847656 283.378906 350.847656 299.007812 L 350.847656 510.964844 C 350.847656 526.539062 338.191406 539.191406 322.5625 539.191406 Z M 322.5625 539.191406 "/><path style=" stroke:none;fill-rule:nonzero;fill:#ffffff;fill-opacity:1;" d="M 405.007812 609.898438 C 389.378906 609.898438 376.726562 597.246094 376.726562 581.617188 L 376.726562 228.355469 C 376.726562 212.78125 389.378906 200.070312 405.007812 200.070312 C 420.582031 200.070312 433.234375 212.78125 433.234375 228.355469 L 433.234375 581.617188 C 433.234375 597.246094 420.582031 609.898438 405.007812 609.898438 Z M 405.007812 609.898438 "/><g clip-rule="nonzero" clip-path="url(#196aedec43)"><path style=" stroke:none;fill-rule:nonzero;fill:#ffffff;fill-opacity:1;" d="M 487.457031 680.550781 C 471.824219 680.550781 459.171875 667.898438 459.171875 652.269531 L 459.171875 157.761719 C 459.171875 142.074219 471.824219 129.417969 487.457031 129.417969 C 503.027344 129.417969 515.683594 142.074219 515.683594 157.761719 L 515.683594 652.269531 C 515.683594 667.898438 503.027344 680.550781 487.457031 680.550781 Z M 487.457031 680.550781 "/></g><path style=" stroke:none;fill-rule:nonzero;fill:#ffffff;fill-opacity:1;" d="M 569.84375 574.574219 C 554.269531 574.574219 541.617188 561.921875 541.617188 546.289062 L 541.617188 263.679688 C 541.617188 248.050781 554.269531 235.398438 569.84375 235.398438 C 585.476562 235.398438 598.128906 248.050781 598.128906 263.679688 L 598.128906 546.289062 C 598.128906 561.921875 585.476562 574.574219 569.84375 574.574219 Z M 569.84375 574.574219 "/><g clip-rule="nonzero" clip-path="url(#cd313b1d33)"><path style=" stroke:none;fill-rule:nonzero;fill:#ffffff;fill-opacity:1;" d="M 652.289062 468.539062 C 636.660156 468.539062 624.007812 455.886719 624.007812 440.3125 L 624.007812 369.660156 C 624.007812 354.027344 636.660156 341.375 652.289062 341.375 C 667.921875 341.375 680.574219 354.027344 680.574219 369.660156 L 680.574219 440.3125 C 680.574219 455.886719 667.921875 468.539062 652.289062 468.539062 Z M 652.289062 468.539062 "/></g></g></svg>